<?xml version="1.0" encoding="iso-8859-1"?>
<!-- Generator: Adobe Illustrator 19.0.0, SVG Export Plug-In . SVG Version: 6.00 Build 0)  -->
<svg version="1.1" id="Layer_1" xmlns="http://www.w3.org/2000/svg" xmlns:xlink="http://www.w3.org/1999/xlink" x="0px" y="0px"
	 viewBox="0 0 512.001 512.001" style="enable-background:new 0 0 512.001 512.001;" xml:space="preserve">
<path style="fill:#C69C6D;" d="M421.997,206.259h-91.761c25.769-21.371,42.186-53.642,42.186-89.752
	C372.421,52.162,320.298,0,256.002,0S139.582,52.162,139.582,116.508c0,36.11,16.416,68.379,42.186,89.752H90.006
	c-23.072,0-41.777,18.719-41.777,41.809s18.705,41.81,41.777,41.81h70.186v180.313c0,23.091,18.704,41.81,41.777,41.81
	s41.777-18.718,41.777-41.81v-89.7h24.509v89.7c0,23.091,18.704,41.81,41.777,41.81c23.073,0,41.777-18.718,41.777-41.81V289.878
	h70.186c23.072,0,41.777-18.719,41.777-41.809C463.774,224.978,445.07,206.259,421.997,206.259z"/>
<g>
	<circle style="fill:#FFFFFF;" cx="216.745" cy="89.815" r="12.908"/>
	<circle style="fill:#FFFFFF;" cx="295.258" cy="89.815" r="12.908"/>
	<path style="fill:#FFFFFF;" d="M256.002,192.538c-38.848,0-70.453-31.606-70.453-70.453c0-4.455,3.612-8.068,8.067-8.068
		c4.455,0,8.068,3.611,8.068,8.068c0,29.952,24.368,54.319,54.319,54.319s54.319-24.368,54.319-54.319
		c0-4.455,3.611-8.068,8.068-8.068c4.455,0,8.067,3.611,8.067,8.068C326.455,160.933,294.85,192.538,256.002,192.538z"/>
</g>
<g>
	<circle style="fill:#FCEE21;" cx="256.002" cy="256.648" r="14.945"/>
	<circle style="fill:#FCEE21;" cx="256.002" cy="310.429" r="14.945"/>
</g>
<g>
	<path style="fill:#FFFFFF;" d="M124.912,206.259h-18.73l-9.202,14.739l10.757,17.235l-10.756,17.235l10.756,17.239l-8.092,12.966
		c-0.818,1.311-1.204,2.765-1.215,4.206h17.609l10.715-17.172l-10.756-17.238l10.756-17.236l-10.755-17.233l8.09-12.956
		C124.445,207.473,124.712,206.872,124.912,206.259z"/>
	<path style="fill:#FFFFFF;" d="M243.747,446.028l-19.92-13.051l-16.423,10.756l-16.417-10.756l-16.431,10.757l-12.01-7.863
		c-0.744-0.487-1.54-0.83-2.354-1.045v18.789l14.364,9.404l16.428-10.755l16.42,10.756l16.423-10.756l11.998,7.861
		c2.454,1.608,5.459,1.696,7.923,0.511L243.747,446.028L243.747,446.028z"/>
	<path style="fill:#FFFFFF;" d="M351.81,444.105l-17.533-11.006l-17.144,10.756l-17.136-10.756l-17.149,10.757l-12.864-8.068
		c-0.554-0.347-1.135-0.61-1.729-0.809v18.77l14.593,9.153l17.147-10.755l17.137,10.756l17.143-10.756l12.848,8.065
		c1.457,0.913,3.091,1.301,4.687,1.219V444.105z"/>
	<path style="fill:#FFFFFF;" d="M417.483,206.259h-18.73l-9.202,14.739l10.756,17.233l-10.755,17.228l10.757,17.242l-8.093,12.971
		c-0.818,1.31-1.204,2.765-1.214,4.205h17.609l10.715-17.176l-10.755-17.239l10.756-17.23l-10.756-17.233l8.09-12.956
		C417.016,207.473,417.284,206.872,417.483,206.259z"/>
</g>
<g>
	<path style="opacity:0.1;fill:#414042;enable-background:new    ;" d="M150.59,127.803c0-64.345,52.124-116.508,116.419-116.508
		c29.836,0,57.041,11.244,77.64,29.715C323.296,15.921,291.512,0,256.002,0c-64.297,0-116.419,52.162-116.419,116.508
		c0,34.488,14.981,65.465,38.776,86.798C161.048,182.969,150.59,156.611,150.59,127.803z"/>
	<path style="opacity:0.1;fill:#414042;enable-background:new    ;" d="M216.128,496.736c-23.072,0-41.777-18.718-41.777-41.81
		V274.615h-70.186c-23.072,0-41.777-18.719-41.777-41.809c0-7.21,1.829-13.989,5.04-19.909
		c-11.548,7.438-19.199,20.409-19.199,35.173c0,23.09,18.705,41.81,41.777,41.81h70.186v180.313c0,23.091,18.704,41.81,41.777,41.81
		c15.868,0,29.648-8.866,36.72-21.906C232.181,494.287,224.446,496.736,216.128,496.736z"/>
</g>
<g>
</g>
<g>
</g>
<g>
</g>
<g>
</g>
<g>
</g>
<g>
</g>
<g>
</g>
<g>
</g>
<g>
</g>
<g>
</g>
<g>
</g>
<g>
</g>
<g>
</g>
<g>
</g>
<g>
</g>
</svg>
